<svg width="44" height="45" viewBox="0 0 44 45" fill="none" xmlns="http://www.w3.org/2000/svg">
<path fill-rule="evenodd" clip-rule="evenodd" d="M22 0.389648C34.1503 0.389648 44 10.2394 44 22.3896C44 34.5399 34.1503 44.3896 22 44.3896C9.84973 44.3896 0 34.5399 0 22.3896C0 10.2394 9.84973 0.389648 22 0.389648ZM35.9648 30.9182V14.5674L27.789 22.7428L35.9648 30.9182ZM9.78175 31.2513H34.2188L26.7501 23.7826L23.9036 26.6287C23.7656 26.7663 23.5786 26.8436 23.3837 26.8435H20.6165C20.52 26.8436 20.4243 26.8247 20.3351 26.7878C20.2459 26.751 20.1648 26.6969 20.0965 26.6287L17.2501 23.7826L9.78141 31.2513H9.78175ZM8.03516 14.5669V30.9186L16.211 22.7428L8.03516 14.5669ZM34.9255 13.528H9.075L20.921 25.374H23.0795L34.9255 13.528Z" fill="black"/>
</svg>
