<svg width="45" height="46" viewBox="0 0 45 46" fill="none" xmlns="http://www.w3.org/2000/svg">
<rect y="0.694946" width="45" height="45" rx="22.5" fill="black"/>
<path d="M31.1376 26.4952C30.1217 25.6788 29.1898 25.2819 28.2886 25.2819C26.9849 25.2819 26.0462 26.1112 25.1963 26.9608C25.0986 27.0586 24.9803 27.1042 24.824 27.1042C24.1079 27.1042 22.848 26.2074 21.0794 24.4386C18.9988 22.3579 18.2122 21.0345 18.7412 20.5053C20.1751 19.0719 20.6227 17.6349 18.4273 14.9044C17.6413 13.9262 16.8724 13.4508 16.0765 13.4508C15.0031 13.4508 14.1871 14.3088 13.4672 15.0659C13.3428 15.1967 13.2252 15.3204 13.1099 15.4356C12.2963 16.2492 12.2967 18.0238 13.1111 20.183C14.0047 22.5519 15.769 25.129 18.0791 27.4395C19.8656 29.2258 21.8094 30.6695 23.7006 31.6388C25.3516 32.4851 26.9531 32.9386 28.21 32.9386C28.2102 32.9386 28.2103 32.9386 28.2105 32.9386C28.9971 32.9386 29.636 32.767 30.058 32.418C30.9152 31.7093 32.5106 30.3967 32.5 28.8374C32.4941 28.0011 32.0359 27.2174 31.1376 26.4952Z" fill="white"/>
</svg>
