<svg width="24" height="24" viewBox="0 0 24 24" fill="none" xmlns="http://www.w3.org/2000/svg">
<path d="M2.85714 0C1.28599 0 0 1.28599 0 2.85714V21.1429C0 22.714 1.28599 24 2.85714 24H21.1429C22.714 24 24 22.714 24 21.1429V2.85714C24 1.28599 22.714 0 21.1429 0H2.85714ZM2.85714 1.14286H6.61719C4.57657 3.26611 3.42857 6.01033 3.42857 8.85714C3.42857 11.8057 4.63438 14.6285 6.8058 16.7656C6.87438 16.8856 6.93138 17.474 6.66853 18.154C6.50281 18.5826 6.17125 19.1424 5.53125 19.3538C5.28554 19.4338 5.12571 19.6748 5.14286 19.9319C5.16 20.1891 5.34902 20.4062 5.60045 20.4576C7.24045 20.7833 8.30246 20.2915 9.1596 19.9029C9.93103 19.5486 10.4404 19.3083 11.2232 19.6283C12.8232 20.2512 14.5257 20.5714 16.2857 20.5714C18.625 20.5714 20.8751 20.0004 22.8571 18.9219V21.1429C22.8571 22.0963 22.0963 22.8571 21.1429 22.8571H2.85714C1.90372 22.8571 1.14286 22.0963 1.14286 21.1429V2.85714C1.14286 1.90372 1.90372 1.14286 2.85714 1.14286ZM16.5714 6.28571C16.8857 6.28571 17.1429 6.54286 17.1429 6.85714V12C17.1429 12.3143 16.8857 12.5714 16.5714 12.5714C16.2571 12.5714 16 12.3143 16 12V6.85714C16 6.54286 16.2571 6.28571 16.5714 6.28571ZM8 6.85714H10.8571C11.0629 6.85714 11.2576 6.97116 11.3605 7.15402C11.4576 7.33116 11.4512 7.55388 11.3426 7.73103L9.02902 11.4286H10.8571C11.1714 11.4286 11.4286 11.6857 11.4286 12C11.4286 12.3143 11.1714 12.5714 10.8571 12.5714H8C7.79429 12.5714 7.59951 12.4574 7.49665 12.2746C7.39951 12.0974 7.40594 11.8747 7.51451 11.6975L9.82812 8H8C7.68571 8 7.42857 7.74286 7.42857 7.42857C7.42857 7.11429 7.68571 6.85714 8 6.85714ZM13.4286 8.57143C13.7771 8.57143 14.1025 8.66813 14.394 8.82812C14.4968 8.67955 14.6571 8.57143 14.8571 8.57143C15.1714 8.57143 15.4286 8.82857 15.4286 9.14286V12C15.4286 12.3143 15.1714 12.5714 14.8571 12.5714C14.6571 12.5714 14.4968 12.4633 14.394 12.3147C14.1025 12.4747 13.7771 12.5714 13.4286 12.5714C12.3257 12.5714 11.4286 11.6743 11.4286 10.5714C11.4286 9.46857 12.3257 8.57143 13.4286 8.57143ZM19.7143 8.57143C20.8171 8.57143 21.7143 9.46857 21.7143 10.5714C21.7143 11.6743 20.8171 12.5714 19.7143 12.5714C18.6114 12.5714 17.7143 11.6743 17.7143 10.5714C17.7143 9.46857 18.6114 8.57143 19.7143 8.57143ZM13.4286 9.71429C13.3693 9.71429 13.3114 9.72075 13.2556 9.73214C13.1439 9.75493 13.0398 9.79895 12.9487 9.86049C12.8575 9.92203 12.7792 10.0003 12.7176 10.0915C12.6561 10.1827 12.6121 10.2867 12.5893 10.3984C12.5779 10.4543 12.5714 10.5121 12.5714 10.5714C12.5714 10.6307 12.5779 10.6886 12.5893 10.7444C12.6007 10.8003 12.6167 10.8538 12.6384 10.9051C12.66 10.9564 12.6869 11.0057 12.7176 11.0513C12.7484 11.0969 12.7838 11.1387 12.8225 11.1775C12.8613 11.2162 12.9031 11.2516 12.9487 11.2824C13.0398 11.3439 13.1439 11.3879 13.2556 11.4107C13.3114 11.4221 13.3693 11.4286 13.4286 11.4286C13.4879 11.4286 13.5457 11.4221 13.6016 11.4107C13.9926 11.3309 14.2857 10.9864 14.2857 10.5714C14.2857 10.0971 13.9029 9.71429 13.4286 9.71429ZM19.7143 9.71429C19.655 9.71429 19.5972 9.72075 19.5413 9.73214C19.4854 9.74354 19.4319 9.7596 19.3806 9.78125C19.3293 9.8029 19.28 9.82972 19.2344 9.86049C19.1888 9.89126 19.147 9.92665 19.1083 9.9654C19.0308 10.0429 18.9674 10.1351 18.9241 10.2377C18.9025 10.289 18.8864 10.3426 18.875 10.3984C18.8636 10.4543 18.8571 10.5121 18.8571 10.5714C18.8571 10.6307 18.8636 10.6886 18.875 10.7444C18.8864 10.8003 18.9025 10.8538 18.9241 10.9051C18.9458 10.9564 18.9726 11.0057 19.0033 11.0513C19.0341 11.0969 19.0695 11.1387 19.1083 11.1775C19.147 11.2162 19.1888 11.2516 19.2344 11.2824C19.28 11.3131 19.3293 11.34 19.3806 11.3616C19.4319 11.3833 19.4854 11.3993 19.5413 11.4107C19.5972 11.4221 19.655 11.4286 19.7143 11.4286C19.7736 11.4286 19.8314 11.4221 19.8873 11.4107C20.2783 11.3309 20.5714 10.9864 20.5714 10.5714C20.5714 10.0971 20.1886 9.71429 19.7143 9.71429Z" fill="#16786B"/>
</svg>
